<svg xmlns="http://www.w3.org/2000/svg" width="108" height="34" fill="none"><path fill="#fff" d="M97.31 26.923c-3.585 0-5.378-1.241-5.378-3.724 0-.345.034-.715.103-1.112l.543-3.206c.293-1.655 1.052-2.922 2.276-3.802 1.24-.896 2.879-1.344 4.913-1.344 3.465 0 5.197 1.31 5.197 3.93 0 .38-.034.793-.103 1.242l-.31 1.835h-7.887l-.104.595a3.48 3.48 0 0 0-.051.57c0 .947.56 1.421 1.68 1.421.414 0 .768-.129 1.06-.387.294-.26.466-.56.518-.906l4.292.052c-.569 3.224-2.818 4.836-6.749 4.836zm3.103-7.758c.069-.293.104-.56.104-.802 0-.258-.112-.517-.337-.775-.224-.259-.586-.388-1.086-.388-.482 0-.93.164-1.344.491-.397.328-.672.82-.828 1.474h3.491zm-9.59-2.353c0 .569-.173 1.095-.518 1.577h-4.24c.137-.103.206-.275.206-.517 0-.241-.138-.43-.413-.569-.276-.155-.63-.232-1.06-.232-1.294 0-1.94.396-1.94 1.19 0 .31.241.534.724.671.483.138 1.069.25 1.759.337.69.086 1.379.215 2.068.387.69.156 1.276.475 1.758.957.483.483.725 1.13.725 1.94 0 1.43-.578 2.517-1.733 3.258-1.138.741-2.801 1.112-4.99 1.112-2.19 0-3.724-.354-4.603-1.06-.69-.552-1.035-1.31-1.035-2.276 0-.276.026-.56.078-.853l4.318-.052c-.034.241.104.457.414.646.328.173.802.259 1.422.259.62 0 1.069-.06 1.345-.181.276-.138.413-.388.413-.75 0-.241-.24-.405-.724-.491a16.25 16.25 0 0 0-1.784-.259 18.223 18.223 0 0 1-2.094-.336 3.44 3.44 0 0 1-1.759-.983c-.482-.5-.724-1.155-.724-1.965 0-1.569.604-2.775 1.81-3.62 1.224-.845 2.983-1.267 5.276-1.267 3.533 0 5.3 1.026 5.3 3.077zm-16.357 5.766c0 .449.225.673.673.673.465 0 .853-.086 1.163-.259l-.129 2.922c-.828.672-1.758 1.009-2.793 1.009-1.896 0-2.948-.69-3.154-2.069-.862 1.38-2.13 2.069-3.802 2.069-2.827 0-4.24-1.216-4.24-3.646 0-.414.043-.87.129-1.37l.543-3.026c.276-1.552.905-2.784 1.888-3.698 1-.93 2.292-1.396 3.878-1.396 1.604 0 2.69.37 3.258 1.111l.13-.775h3.93l-1.448 8.145a1.889 1.889 0 0 0-.026.31zm-7.654-1.24c-.034.154-.052.37-.052.646s.13.551.388.827c.259.259.69.388 1.293.388.62 0 1.155-.241 1.604-.724l.775-4.344c-.19-.431-.637-.647-1.344-.647-1.328 0-2.103.638-2.328 1.914l-.336 1.94zM56.46 13.76c1.707 0 2.905.475 3.595 1.423.517.672.776 1.491.776 2.457 0 .396-.044.81-.13 1.24l-.517 2.897c-.293 1.655-1.06 2.93-2.301 3.827-1.224.88-2.776 1.319-4.655 1.319-1.862 0-3.293-.371-4.292-1.112-.793-.586-1.19-1.405-1.19-2.457 0-.276.026-.56.078-.853l2.74-15.567h4.397l-1.32 7.525c.725-.466 1.664-.698 2.82-.698zm-.232 5.509a4.86 4.86 0 0 0 .026-.57c0-.258-.112-.525-.337-.8-.206-.294-.672-.44-1.396-.44-.707 0-1.215.215-1.526.646l-.75 4.318c.207.517.638.776 1.293.776 1.328 0 2.112-.664 2.354-1.991l.336-1.94zm-12.085 3.309c0 .449.224.673.673.673.465 0 .853-.086 1.163-.259l-.129 2.922c-.828.672-1.758 1.009-2.793 1.009-1.568 0-2.586-.362-3.051-1.086a2.808 2.808 0 0 1-.44-1.526c0-.552.035-1.034.104-1.448l2.818-15.929h4.396L44.17 22.268a1.89 1.89 0 0 0-.026.31zm-8.257 0c0 .449.224.673.672.673.465 0 .853-.086 1.163-.259l-.129 2.922c-.827.672-1.758 1.009-2.792 1.009-1.57 0-2.586-.362-3.052-1.086a2.808 2.808 0 0 1-.44-1.526c0-.552.035-1.034.104-1.448l2.819-15.929h4.395l-2.715 15.334a1.89 1.89 0 0 0-.026.31zm-11.674-8.817c1.862 0 3.267.405 4.215 1.216.742.637 1.112 1.525 1.112 2.663 0 .38-.043.793-.129 1.241l-.543 3.026c-.328 1.827-1.095 3.12-2.301 3.878-1.19.759-2.784 1.138-4.784 1.138s-3.465-.38-4.396-1.138c-.69-.569-1.034-1.422-1.034-2.56 0-.396.043-.836.129-1.318l.543-3.026c.603-3.413 3-5.12 7.188-5.12zm.699 5.637a3.41 3.41 0 0 0 .051-.646c0-.276-.112-.578-.336-.905-.224-.328-.62-.491-1.19-.491-.55 0-1.016.19-1.396.568-.379.363-.62.854-.724 1.474l-.336 1.94a3.543 3.543 0 0 0-.052.672c0 .259.113.543.337.853.224.31.612.466 1.163.466.57 0 1.043-.19 1.422-.569.38-.397.621-.87.724-1.422l.337-1.94zm-4.894-7.421h-6.362l-2.56 14.584h-4.68l2.56-14.584H2.588l.724-4.034H20.74l-.723 4.034z"/></svg>