<svg xmlns="http://www.w3.org/2000/svg" width="103" height="34" fill="none"><g clip-path="url(#a)"><g clip-path="url(#b)"><path fill="#fff" d="M14.645 28.215h3.427l-.998-.997a1.411 1.411 0 0 0-.997-.414h-1.432c-5.454 0-9.875-4.42-9.875-9.874 0-5.454 4.421-9.875 9.875-9.875h11.286c5.454 0 9.875 4.42 9.875 9.875 0 5.453-4.421 9.874-9.875 9.874h-4.222c-.561 0-1.1-.223-1.496-.62l-1.169-1.168a3.527 3.527 0 0 0-2.494-1.033h-1.905a7.053 7.053 0 1 1 0-14.107h11.286a7.053 7.053 0 1 1 0 14.107h-2.71c-.562 0-1.1-.223-1.497-.62l-1.169-1.168a3.527 3.527 0 0 0-2.494-1.033h-3.416a4.232 4.232 0 0 1 0-8.464h11.286a4.232 4.232 0 0 1 .085 8.463h-1.032c-.562 0-1.1-.222-1.497-.62l-1.169-1.168a3.526 3.526 0 0 0-1.995-.997l-.035-.036h-5.643a1.41 1.41 0 0 1 0-2.821h11.286a1.41 1.41 0 0 1 0 2.821h-2.822l.998.998c.265.264.623.413.997.413h.827a2.821 2.821 0 1 0 0-5.643H14.645a2.821 2.821 0 1 0 0 5.643h5.18c.56 0 1.1.223 1.496.62l1.169 1.168a3.527 3.527 0 0 0 2.494 1.033h1.3v-.01a5.643 5.643 0 0 0-.353-11.275H14.645a5.643 5.643 0 0 0 0 11.285h3.416c.561 0 1.1.223 1.497.62l1.168 1.169a3.527 3.527 0 0 0 2.494 1.033h2.71a8.464 8.464 0 1 0 0-16.929H14.646a8.464 8.464 0 1 0 0 16.929h1.905c.561 0 1.1.223 1.497.62l1.168 1.168a3.527 3.527 0 0 0 2.494 1.033h4.222c6.233 0 11.286-5.053 11.286-11.285 0-6.233-5.053-11.286-11.286-11.286H14.645C8.412 5.644 3.36 10.697 3.36 16.93c0 6.232 5.053 11.285 11.286 11.285z"/></g><path fill="#fff" d="M97.73 26.061c-1.033 0-1.817-.249-2.35-.747-.535-.517-.802-1.362-.802-2.537V7.795h2.911V22.51c0 .498.089.836.267 1.015.178.178.445.267.801.267a4.65 4.65 0 0 0 1.229-.16v2.11a4.203 4.203 0 0 1-.989.24c-.302.053-.658.08-1.068.08zm-5.962 0c-1.032 0-1.816-.249-2.35-.747-.534-.517-.8-1.362-.8-2.537V7.795h2.91V22.51c0 .498.089.836.267 1.015.178.178.445.267.801.267a4.69 4.69 0 0 0 1.229-.16v2.11a4.201 4.201 0 0 1-.988.24c-.303.053-.66.08-1.069.08zm-12.958.001a5.854 5.854 0 0 1-2.243-.427 3.755 3.755 0 0 1-1.629-1.282c-.409-.588-.614-1.309-.614-2.163 0-1.211.41-2.181 1.229-2.911.836-.748 2.118-1.122 3.845-1.122h4.06v-.56c0-.606-.099-1.087-.294-1.443-.178-.356-.517-.614-1.015-.774-.48-.16-1.193-.24-2.137-.24-1.495 0-2.893.222-4.192.667v-2.163c.57-.231 1.264-.418 2.083-.56.819-.143 1.7-.214 2.643-.214 1.852 0 3.258.373 4.22 1.121.979.748 1.469 1.968 1.469 3.659v8.145H83.75l-.187-1.282c-.516.498-1.157.881-1.923 1.148-.747.267-1.691.4-2.83.4zm.775-2.083c.872 0 1.63-.143 2.27-.427.659-.303 1.193-.704 1.602-1.202v-2.217h-4.005c-.855 0-1.478.17-1.87.508-.374.32-.56.819-.56 1.495 0 .659.222 1.13.667 1.416.445.284 1.077.427 1.896.427zm-8.645 2.082c-1.352 0-2.367-.356-3.043-1.068-.66-.73-.989-1.718-.989-2.964v-6.623H65.04v-2.27h1.87v-2.91l2.883-.882v3.792h3.365l-.187 2.27h-3.177v6.463c0 .73.169 1.246.507 1.549.338.285.89.427 1.656.427.48 0 .988-.089 1.522-.267v2.056c-.694.285-1.54.427-2.537.427zm-7.64 0c-1.033 0-1.816-.249-2.35-.747-.535-.517-.802-1.362-.802-2.537V7.795h2.911V22.51c0 .498.09.836.267 1.015.178.178.445.267.801.267a4.65 4.65 0 0 0 1.229-.16v2.11a4.202 4.202 0 0 1-.988.24c-.303.053-.659.08-1.068.08zm-20.155-.267 6.569-17.198h3.258l6.516 17.198h-2.991l-1.71-4.433h-6.916l-1.709 4.433h-3.017zm5.18-6.676h5.982l-2.99-7.878-2.992 7.878z"/></g><defs><clipPath id="a"><path fill="#fff" d="M.824 0h101.5v33.857H.824z"/></clipPath><clipPath id="b"><path fill="#fff" d="M3.363 5.643H37.22v22.571H3.363z"/></clipPath></defs></svg>