<svg xmlns="http://www.w3.org/2000/svg" width="78" height="34" fill="none"><g fill="#fff" clip-path="url(#a)"><path d="M70.736 16.032c.46-.848.884-1.59 1.273-2.156.318-.46.6-.53.848-.212.53.636.814 2.156-.035 3.924-.778 1.59-2.546 4.242-3.394 6.116-.884 1.98-.92 3.5.283 3.43 1.45-.07 3.394-2.475 4.631-4.915.177-.318.425-.353.566-.035.141.318.141 1.202-.318 2.192-.92 1.945-3.147 3.89-5.091 3.783-1.91-.106-2.9-1.237-2.9-2.899-1.13 1.45-2.722 2.758-4.419 2.758-3.288 0-3.96-4.49-1.025-8.768 2.864-4.172 5.657-5.763 7.424-5.763 1.52 0 2.228 1.166 2.157 2.545zm-3.076 5.48c2.228-3.889 2.546-6.08 1.52-6.187-1.13-.106-3.712 2.192-5.656 5.339-1.874 3.04-2.334 6.152-.955 6.187 1.45.035 3.288-2.227 5.091-5.339zM49.878 24.66c-1.238 1.661-3.111 3.464-5.091 3.323-2.51-.177-2.581-2.793-1.803-5.127.777-2.333 2.58-5.798 4.879-9.015.282-.39.636-.354.919-.035.778 1.166.6 2.757-.672 4.772-1.308 2.086-2.015 3.5-2.758 5.198-.742 1.732-.636 3.005.177 3.076 1.379.105 3.323-2.37 5.233-5.445 2.227-3.606 3.252-6.046 4.384-7.566.353-.495.6-.566.884-.212.53.636.813 2.192-.036 3.96-.778 1.59-2.545 4.242-3.358 6.045-.92 2.015-.778 3.5.494 3.43 1.485-.071 3.288-2.404 4.667-4.88.177-.318.495-.353.637-.035.141.283.177 1.238-.318 2.228-1.026 1.98-3.218 3.783-5.304 3.783-2.298 0-3.217-1.45-2.934-3.5zm-16.779-7.532c1.59-1.697 3.995-3.641 5.161-3.464 1.167.177 2.263 1.909 1.38 3.747-.743 1.556-2.476 4.172-3.289 6.01-.919 2.051-.707 3.713.566 3.642 1.45-.07 3.182-2.404 4.525-4.879.177-.318.425-.318.601-.035.248.389.177 1.202-.318 2.227-.954 1.98-3.182 3.783-5.232 3.783-3.006 0-3.713-2.192-2.687-5.268 1.166-3.464 4.278-7.212 3.641-7.495-.353-.141-2.404.849-4.667 3.323-2.086 2.263-3.641 5.657-5.162 8.98-.14.319-.353.46-.671.142-.707-.707-.92-1.874-.354-3.642.707-2.227 3.43-7.141 5.657-10.43.248-.388.53-.353.742 0 .53.885.495 2.087.107 3.36zm-6.606-5.833c.46.92.212 1.874-.248 2.369-.46.495-1.45.389-1.98-.53-.565-.955-.389-2.016.177-2.617.566-.601 1.591-.177 2.05.778zM20.73 28.053c-2.687 0-3.359-2.263-2.369-5.162.884-2.58 3.217-6.752 4.526-8.591.318-.424.565-.53.848-.212.53.566.813 2.086-.035 3.854-.743 1.555-2.228 3.96-2.97 5.727-.849 2.05-.778 3.43.354 3.359 1.59-.07 3.535-2.404 4.596-4.844.176-.318.424-.283.565 0 .283.566.177 1.308-.247 2.192-1.06 2.192-3.288 3.677-5.268 3.677zM7.308 20.098c-1.237 2.37-2.475 5.02-3.641 7.743-.142.318-.354.389-.566.106-.53-.742-.813-1.768-.177-3.889.884-3.005 6.965-14.99 9.122-17.996.318-.424.565-.389.848.071.46.813.637 2.51-.813 5.162-.92 1.662-2.086 3.748-3.359 6.116 4.632-3.464 9.582-7.884 12.94-11.525.248-.283.53-.248.672.07.212.778.177 1.98-1.096 3.713-1.591 2.156-6.4 6.47-11.172 9.828 1.131 1.803 2.086 3.43 2.51 4.42.849 2.015.53 3.252 0 3.924-.212.248-.46.248-.636-.07-1.344-2.617-2.9-5.162-4.632-7.673z"/></g><defs><clipPath id="a"><path fill="#fff" d="M.02 0h77.511v33.857H.02z"/></clipPath></defs></svg>