<svg xmlns="http://www.w3.org/2000/svg" width="108" height="34" fill="none"><g fill="#fff" clip-path="url(#a)"><path d="M26.81 11.917a12.363 12.363 0 0 0-1.865-3.005 12.627 12.627 0 1 0-17.433 18.03c.91.708 1.915 1.283 2.986 1.709 1.502.615 3.109.932 4.732.933a12.654 12.654 0 0 0 12.626-12.646 12.496 12.496 0 0 0-1.045-5.02zM15.22 6.85c1.458 0 2.897.318 4.219.933a4.08 4.08 0 0 1-1.008.29 5.348 5.348 0 0 0-4.526 4.526 2.8 2.8 0 0 1-2.53 2.473 5.348 5.348 0 0 0-4.526 4.526 2.716 2.716 0 0 1-.737 1.624 10.08 10.08 0 0 1 9.118-14.39l-.01.018zM7.503 23.47c.112-.103.224-.196.336-.308A5.114 5.114 0 0 0 9.35 20.15c.06-.645.348-1.247.811-1.699a2.641 2.641 0 0 1 1.69-.802 5.348 5.348 0 0 0 4.526-4.527c.04-.674.33-1.31.811-1.782a2.678 2.678 0 0 1 1.708-.775 5.114 5.114 0 0 0 2.8-1.334 9.807 9.807 0 0 1 2.202 2.594.803.803 0 0 1-.121.13 2.678 2.678 0 0 1-1.69.822 5.329 5.329 0 0 0-4.525 4.526 2.8 2.8 0 0 1-2.51 2.501 5.375 5.375 0 0 0-4.555 4.527c-.05.456-.207.894-.457 1.278a10.163 10.163 0 0 1-2.538-2.137zm7.717 3.602a10.05 10.05 0 0 1-2.8-.392 5.37 5.37 0 0 0 .598-1.866 2.8 2.8 0 0 1 2.501-2.501 5.348 5.348 0 0 0 4.536-4.526 2.8 2.8 0 0 1 2.5-2.502 5.328 5.328 0 0 0 2.39-.933 10.1 10.1 0 0 1-9.725 12.674v.046zM97.932 9.65v14.575h-3.01V9.65h3.01zm6.293 8.793h-6.293v-3.01l6.293-.018v3.028zm1.186-5.783h-7.48V9.65h7.48v3.01zm0 11.566h-7.48v-3.01l7.48-.019v3.029zM88.44 9.632v14.594h-3.01V9.632h3.01zm4.65 3.01H80.778V9.65l12.314-.018v3.01zm-18.644-3.01L68.17 24.226h-3.393l6.276-14.594h3.393zm.018 0 6.312 14.594h-3.393L71.07 9.632h3.393zm2.554 11.894h-8.665v-3.101l8.665-.019v3.12zM49.617 9.632h6.166c2.031 0 3.734.328 5.108.985 1.374.657 2.061 1.94 2.061 3.85 0 1.13-.364 2.024-1.094 2.68-.718.645-1.612 1.095-2.682 1.35a15.07 15.07 0 0 1-3.393.366H52.7v5.363h-3.083V9.632zm6.823 8.209h3.448l2.754 6.385h-3.448L56.44 17.84zm-.657-1.916c.96 0 1.697-.048 2.207-.146.523-.109.888-.28 1.095-.51.207-.231.31-.542.31-.93 0-.39-.103-.7-.31-.931-.207-.231-.572-.401-1.095-.51-.51-.11-1.246-.165-2.207-.165H52.7v3.192h3.083zm-7.997-6.293L37.99 22.256l-.146-4.196 6.276-8.428h3.666zm-9.303 0v14.594h-3.01V9.632h3.01zm.912 8.282 1.897-2.098 6.494 8.41H44.12l-4.725-6.312z"/></g><defs><clipPath id="a"><path fill="#fff" d="M0 0h107.951v33.857H0z"/></clipPath></defs></svg>