<svg xmlns="http://www.w3.org/2000/svg" width="84" height="34" fill="none"><g clip-path="url(#a)"><path fill="#fff" d="M20.846 16.958a9.777 9.777 0 0 0 4.646-7.96.37.37 0 0 0-.366-.38h-1.975a.294.294 0 0 1-.293-.293V6.29a.366.366 0 0 0-.38-.366 9.816 9.816 0 0 0-7.96 4.646 9.813 9.813 0 0 0-7.96-4.646.37.37 0 0 0-.381.366v1.975a.294.294 0 0 1-.293.293H3.85a.366.366 0 0 0-.365.38A9.816 9.816 0 0 0 8.13 16.9a9.823 9.823 0 0 0-4.645 7.96.37.37 0 0 0 .365.38h1.976c.16 0 .292.133.292.293v2.042c0 .205.169.373.38.365a9.816 9.816 0 0 0 7.96-4.645c1.669 2.692 4.603 4.521 7.961 4.645a.37.37 0 0 0 .38-.365v-1.976c0-.16.132-.292.293-.292h2.041a.366.366 0 0 0 .366-.38 9.825 9.825 0 0 0-4.653-7.968zm-6.358-1.237a1.208 1.208 0 0 1 0 2.415 1.208 1.208 0 0 1 0-2.415zm8.063-6.533a6.887 6.887 0 0 1-6.226 6.285.292.292 0 0 1-.315-.315 6.887 6.887 0 0 1 6.226-6.285.292.292 0 0 1 .315.315zm-9.833 6.219A6.887 6.887 0 0 1 6.433 9.18a.292.292 0 0 1 .315-.315 6.887 6.887 0 0 1 6.284 6.226c.015.183-.139.337-.314.315zm-6.292 9.262a6.887 6.887 0 0 1 6.226-6.284.292.292 0 0 1 .314.314 6.887 6.887 0 0 1-6.226 6.285.292.292 0 0 1-.314-.315zm9.84-6.219a6.887 6.887 0 0 1 6.285 6.227.292.292 0 0 1-.315.314 6.887 6.887 0 0 1-6.285-6.226.285.285 0 0 1 .315-.315z"/></g><path fill="#fff" d="M69.749 23.095c-1.098-1.013-1.647-2.506-1.647-4.477 0-1.978.549-3.47 1.647-4.477 1.098-1.014 2.675-1.52 4.73-1.52 2.063 0 3.644.506 4.742 1.52 1.098 1.006 1.647 2.499 1.647 4.477 0 1.971-.549 3.464-1.647 4.477-1.098 1.014-2.679 1.52-4.741 1.52-2.056 0-3.633-.506-4.731-1.52zm2.672-7.222c-.437.57-.655 1.481-.655 2.735 0 1.253.218 2.168.654 2.745.437.577 1.123.866 2.06.866.943 0 1.633-.289 2.07-.866.443-.577.665-1.492.665-2.745 0-1.254-.222-2.165-.666-2.736-.436-.57-1.126-.855-2.07-.855-.936 0-1.622.285-2.058.856zm-9.917 7.887V9.918a.629.629 0 0 1 .644-.655h2.365a.6.6 0 0 1 .454.19.61.61 0 0 1 .19.465V23.76a.632.632 0 0 1-.644.644h-2.365a.651.651 0 0 1-.465-.18.651.651 0 0 1-.18-.464zm-13.364-.115c-.93-.648-1.394-1.563-1.394-2.746s.465-2.09 1.394-2.725c.936-.633 2.14-.95 3.611-.95h3.496c0-.823-.173-1.397-.518-1.721-.345-.324-.95-.486-1.816-.486-.859 0-1.464.215-1.816.644-.345.423-.771.634-1.278.634h-1.573a.665.665 0 0 1-.476-.18.651.651 0 0 1-.18-.464c0-2.02 1.92-3.03 5.756-3.03 1.675 0 3.02.376 4.034 1.129 1.014.746 1.52 1.904 1.52 3.474v6.537c0 .19-.06.345-.18.464a.629.629 0 0 1-.464.18h-2.038a.629.629 0 0 1-.465-.18.651.651 0 0 1-.179-.464v-.328c-1.112.796-2.397 1.19-3.854 1.183-1.45 0-2.644-.324-3.58-.971zm3.865-4.024c-.493 0-.884.12-1.172.36-.282.239-.423.548-.423.928s.148.694.444.94c.296.247.714.37 1.256.37 1.085 0 2.13-.317 3.137-.95V19.62h-3.242zm-5.916 4.319c0 .31-.183.465-.55.465h-2.418c-.274 0-.57-.095-.887-.285a2.302 2.302 0 0 1-.739-.708l-1.858-2.946c-.444-.718-.89-1.256-1.342-1.616-.45-.366-.992-.549-1.626-.549H35.4v5.133a.931.931 0 0 1-.296.696.967.967 0 0 1-.697.275h-1.985a.966.966 0 0 1-.707-.296 1 1 0 0 1-.296-.718V10.266a1 1 0 0 1 .296-.719.95.95 0 0 1 .707-.306h1.985c.275 0 .507.102.697.306a1 1 0 0 1 .296.718v5.059h2.27c.62 0 1.162-.17 1.627-.507.471-.338.918-.884 1.34-1.637l1.637-2.915c.373-.675.88-1.017 1.52-1.024h2.44c.338 0 .507.148.507.444 0 .162-.06.355-.18.58l-2.29 4.15c-.332.606-.705 1.106-1.12 1.5-.408.394-.944.672-1.605.834.464.099.94.39 1.425.877a9.602 9.602 0 0 1 1.3 1.584l2.64 4.202c.119.204.179.38.179.528z"/><defs><clipPath id="a"><path fill="#fff" d="M3.484 5.925h22.007v22.007H3.484z"/></clipPath></defs></svg>