<svg xmlns="http://www.w3.org/2000/svg" width="88" height="34" fill="none"><g fill="#fff" clip-path="url(#a)"><path d="M80.05 26.548c-1.46 0-2.652-.309-3.577-.926a6.037 6.037 0 0 1-2.035-2.405 8.076 8.076 0 0 1-.679-3.115c-.02-1.275.216-2.405.71-3.392.513-1.008 1.233-1.789 2.158-2.344.946-.576 2.056-.864 3.33-.864 1.132 0 2.139.247 3.023.74a5.566 5.566 0 0 1 2.159 2.098c.534.884.812 1.932.833 3.145v.802H76.75c0 1.172.287 2.077.863 2.714.576.617 1.367.925 2.375.925.78 0 1.429-.195 1.943-.586a2.3 2.3 0 0 0 .956-1.542h3.053c-.144 1.337-.72 2.468-1.727 3.393-1.008.904-2.395 1.357-4.164 1.357zm-3.207-7.68h5.983a6.544 6.544 0 0 0-.154-.678 2.887 2.887 0 0 0-.401-.956c-.185-.329-.473-.607-.864-.833-.39-.226-.894-.339-1.51-.339-.823 0-1.45.175-1.882.524-.411.33-.71.72-.894 1.172-.165.432-.257.802-.278 1.11zm-10.496 7.68c-1.46 0-2.652-.309-3.577-.926a6.037 6.037 0 0 1-2.036-2.405 8.075 8.075 0 0 1-.678-3.115c-.02-1.275.216-2.405.71-3.392.513-1.008 1.233-1.789 2.158-2.344.946-.576 2.056-.864 3.33-.864 1.131 0 2.139.247 3.023.74a5.566 5.566 0 0 1 2.159 2.098c.534.884.812 1.932.832 3.145v.802h-9.22c0 1.172.287 2.077.863 2.714.576.617 1.367.925 2.374.925.782 0 1.43-.195 1.943-.586a2.3 2.3 0 0 0 .957-1.542h3.053c-.144 1.337-.72 2.468-1.727 3.393-1.008.904-2.396 1.357-4.164 1.357zm-3.207-7.68h5.983a6.598 6.598 0 0 0-.154-.678 2.887 2.887 0 0 0-.401-.956c-.185-.329-.473-.607-.864-.833-.39-.226-.894-.339-1.511-.339-.822 0-1.45.175-1.881.524-.411.33-.71.72-.895 1.172-.164.432-.257.802-.277 1.11zM50.79 26.24V13.563h2.929l.216 3.516c.123-.535.36-1.07.709-1.604a4.207 4.207 0 0 1 1.511-1.357c.658-.37 1.501-.555 2.529-.555h.463v3.516h-.463c-1.768 0-3.002.288-3.7.863-.7.555-1.05 1.501-1.05 2.837v5.46H50.79zm-4.848-.001c-1.007 0-1.768-.247-2.282-.74-.493-.494-.74-1.296-.74-2.406v-7.309h-1.912v-2.22c.596 0 1.059-.062 1.388-.185.329-.123.565-.411.709-.864.144-.452.216-1.182.216-2.19h2.529v3.239h2.899v2.22h-2.9v7.988h2.961v2.467h-2.868zm-9.337.001V8.875h3.084V26.24h-3.084zm-5.515 0V8.875h3.084V26.24H31.09zm-8.362.307c-1.44 0-2.632-.277-3.578-.832a5.3 5.3 0 0 1-2.128-2.282c-.473-.987-.709-2.108-.709-3.362-.02-1.891.504-3.444 1.573-4.657 1.09-1.233 2.704-1.85 4.842-1.85 2.076 0 3.65.596 4.718 1.789 1.09 1.192 1.635 2.765 1.635 4.718 0 1.213-.226 2.313-.679 3.3a5.256 5.256 0 0 1-2.097 2.344c-.946.555-2.138.832-3.577.832zm0-2.652c.904 0 1.593-.195 2.066-.586.493-.39.822-.884.987-1.48a7.158 7.158 0 0 0 0-3.732 2.796 2.796 0 0 0-.987-1.51c-.473-.391-1.162-.587-2.066-.587-.926 0-1.635.206-2.128.617a3.04 3.04 0 0 0-.987 1.511 6.93 6.93 0 0 0-.247 1.85c0 .617.082 1.234.247 1.851a3.05 3.05 0 0 0 .987 1.48c.493.39 1.202.586 2.128.586zM5.689 26.24H2.543V8.875h6.97c1.932 0 3.433.484 4.502 1.45 1.07.966 1.604 2.426 1.604 4.38 0 1.706-.555 3.042-1.665 4.008-1.09.967-2.57 1.45-4.441 1.45H5.689v6.075zM9.08 11.435H5.689v6.415H9.08c1.11 0 2.005-.267 2.683-.802.679-.535 1.018-1.336 1.018-2.405 0-1.09-.34-1.892-1.018-2.406-.658-.535-1.552-.802-2.683-.802z"/></g><defs><clipPath id="a"><path fill="#fff" d="M.785 0h87.182v33.857H.785z"/></clipPath></defs></svg>