<svg xmlns="http://www.w3.org/2000/svg" width="97" height="34" fill="none"><path fill="#fff" d="M86.055 25.994c-1.565 0-2.833-.06-3.804-.178-.972-.095-1.719-.296-2.24-.604a2.5 2.5 0 0 1-1.066-1.35c-.19-.57-.285-1.293-.285-2.17 0-1.208.13-2.133.391-2.772.26-.64.7-1.067 1.316-1.28.64-.237 1.493-.356 2.56-.356a61.5 61.5 0 0 1 1.99.036 68.2 68.2 0 0 1 2.204.035c.711.024 1.327.072 1.849.143.545.047.912.094 1.102.142 0-.853-.071-1.529-.214-2.027-.142-.497-.379-.876-.71-1.137-.332-.26-.759-.427-1.28-.498a13.084 13.084 0 0 0-1.813-.107c-.806 0-1.624.024-2.453.072-.806.023-1.576.083-2.311.177-.711.072-1.34.178-1.884.32v-.817c0-.593.142-1.02.426-1.28.285-.284.652-.474 1.102-.569.522-.118 1.28-.201 2.276-.249a69.77 69.77 0 0 1 3.235-.07c1.469 0 2.701.07 3.697.212.995.143 1.79.427 2.382.854.616.426 1.054 1.054 1.315 1.884.26.806.391 1.896.391 3.27v7.181c-.284.403-1.114.7-2.488.89-1.351.165-3.247.248-5.688.248zm-.036-1.849c.806 0 1.47-.011 1.99-.035.546-.047.984-.119 1.316-.213.332-.095.58-.214.747-.356v-4.408c-.237-.071-.617-.13-1.138-.178a15.914 15.914 0 0 0-1.528-.142c-.522-.047-.96-.071-1.316-.071-.71 0-1.291.06-1.742.178-.45.094-.782.331-.995.71-.19.38-.285.972-.285 1.778 0 .64.072 1.173.214 1.6.142.403.426.699.853.889.426.166 1.054.248 1.884.248zm-25.445-5.439c0-1.943.273-3.436.818-4.48.545-1.042 1.327-1.753 2.346-2.132 1.043-.403 2.275-.605 3.697-.605.427 0 .913.024 1.458.071.569.048 1.114.119 1.635.214a9.49 9.49 0 0 1 1.387.284c.403.095.699.202.888.32l-1.066.462V7.863h4.266l-.036 10.808c0 1.611-.13 2.903-.39 3.875-.261.948-.7 1.67-1.316 2.168-.593.474-1.41.794-2.453.96-1.02.142-2.299.213-3.84.213-1.398 0-2.583-.095-3.554-.284-.948-.19-1.707-.534-2.276-1.031-.545-.498-.948-1.22-1.208-2.169-.237-.948-.356-2.18-.356-3.697zm7.501 4.906c.782 0 1.41-.06 1.884-.178.498-.142.865-.367 1.102-.675.261-.308.439-.747.534-1.316.094-.592.142-1.339.142-2.24L71.7 14.12a6.66 6.66 0 0 0-.782-.035l-1.03-.072a15.019 15.019 0 0 0-.996-.035c-.996 0-1.79.13-2.382.39-.569.238-.983.7-1.244 1.387-.237.688-.356 1.695-.356 3.022 0 1.375.095 2.406.285 3.093.213.687.557 1.15 1.03 1.386.475.238 1.09.356 1.85.356zm-23.988 2.205c-.782 0-1.173-.403-1.173-1.21v-12.05c.711-.285 1.718-.522 3.022-.712 1.327-.213 2.796-.32 4.408-.32 1.683 0 3.01.095 3.982.285.995.19 1.73.51 2.204.96.497.45.817 1.042.96 1.777.166.735.248 1.647.248 2.738v6.86c0 .427-.035.77-.106 1.032-.048.237-.202.414-.462.533-.237.095-.617.142-1.138.142l-2.56-.035v-9.528c0-.83-.26-1.434-.782-1.813-.521-.38-1.291-.569-2.31-.569-.356 0-.735.036-1.138.107a5.64 5.64 0 0 0-1.138.249 2.797 2.797 0 0 0-.888.39v11.164h-3.129zm-12.572.177c-1.564 0-2.832-.06-3.803-.178-.972-.095-1.719-.296-2.24-.604a2.5 2.5 0 0 1-1.067-1.35c-.19-.57-.284-1.293-.284-2.17 0-1.208.13-2.133.391-2.772.26-.64.7-1.067 1.316-1.28.64-.237 1.493-.356 2.56-.356a61.5 61.5 0 0 1 1.99.036 68.2 68.2 0 0 1 2.204.035c.711.024 1.327.072 1.849.143.545.047.912.094 1.102.142 0-.853-.071-1.529-.214-2.027-.142-.497-.379-.876-.71-1.137-.332-.26-.759-.427-1.28-.498a13.085 13.085 0 0 0-1.814-.107c-.805 0-1.623.024-2.452.072-.806.023-1.576.083-2.311.177-.711.072-1.34.178-1.884.32v-.817c0-.593.142-1.02.426-1.28.285-.284.652-.474 1.102-.569.522-.118 1.28-.201 2.276-.249a69.775 69.775 0 0 1 3.235-.07c1.469 0 2.701.07 3.697.212.995.143 1.79.427 2.382.854.616.426 1.054 1.054 1.315 1.884.26.806.391 1.896.391 3.27v7.181c-.284.403-1.114.7-2.489.89-1.35.165-3.246.248-5.688.248zm-.035-1.849c.806 0 1.47-.011 1.99-.035.546-.047.984-.119 1.316-.213.332-.095.58-.214.747-.356v-4.408c-.237-.071-.617-.13-1.138-.178a15.916 15.916 0 0 0-1.529-.142 14.94 14.94 0 0 0-1.315-.071c-.71 0-1.292.06-1.742.178-.45.094-.782.331-.995.71-.19.38-.285.972-.285 1.778 0 .64.071 1.173.214 1.6.142.403.426.699.853.889.426.166 1.055.248 1.884.248zM3.484 25.816V11.845c0-.877.143-1.493.427-1.849.308-.355.9-.533 1.777-.533h3.52a96.78 96.78 0 0 1 3.733 0h3.52c1.042.047 1.954.237 2.737.569a3.727 3.727 0 0 1 1.813 1.6c.45.71.675 1.67.675 2.88 0 1.35-.225 2.44-.675 3.27-.427.83-1.043 1.434-1.85 1.813-.781.355-1.717.533-2.808.533a231.18 231.18 0 0 0-4.123-.035H8.07v-1.565c.024-.355.083-.592.178-.71.095-.12.284-.178.569-.178h5.581c.474 0 .9-.095 1.28-.285.38-.19.675-.51.889-.96.213-.45.32-1.054.32-1.813 0-.806-.154-1.422-.462-1.848-.309-.427-.818-.664-1.53-.711a28.954 28.954 0 0 0-2.061-.071c-.711 0-1.398.011-2.062.035H8.995c-.143 0-.308.06-.498.178a.587.587 0 0 0-.284.533v13.118H3.484z"/></svg>