<svg xmlns="http://www.w3.org/2000/svg" width="96" height="34" fill="none"><g clip-path="url(#a)"><g clip-path="url(#b)"><path fill="#fff" fill-rule="evenodd" d="M10.089 6.422c-1.185 0-2.322.47-3.16 1.308l-4.042 4.043v1.851c0 1.308.561 2.484 1.456 3.301a4.457 4.457 0 0 0-1.456 3.3v1.851L6.93 26.12a4.467 4.467 0 0 0 6.46-.149 4.468 4.468 0 0 0 6.46.148l4.042-4.043v-1.85a4.457 4.457 0 0 0-1.456-3.301 4.456 4.456 0 0 0 1.456-3.3v-1.851L19.85 7.73a4.468 4.468 0 0 0-6.46.149 4.456 4.456 0 0 0-3.3-1.457zm6.325 10.503c-.05-.046-.1-.093-.149-.142l-2.876-2.876-2.875 2.877a4.389 4.389 0 0 1-.149.141c.05.046.1.093.149.142l2.876 2.876 2.875-2.876c.049-.049.098-.096.149-.142zm-1.858 5.151v.884a2.134 2.134 0 0 0 3.643 1.51l3.36-3.36v-.884a2.134 2.134 0 0 0-3.643-1.509l-3.36 3.36zm-2.333 0-3.36-3.359a2.134 2.134 0 0 0-3.642 1.509v.884l3.359 3.36a2.134 2.134 0 0 0 3.643-1.51v-.884zm0-11.186v.883l-3.36 3.36a2.134 2.134 0 0 1-3.642-1.509v-.884L8.58 9.38a2.134 2.134 0 0 1 3.643 1.51zm5.693 4.243-3.36-3.36v-.883A2.134 2.134 0 0 1 18.2 9.38l3.36 3.36v.884a2.134 2.134 0 0 1-3.643 1.509z" clip-rule="evenodd"/></g><path fill="#fff" d="M85.512 25.517c-2.089 0-3.69-.496-4.803-1.487-1.113-.991-1.67-2.44-1.67-4.346v-4.895c0-1.906.557-3.355 1.67-4.346 1.113-.991 2.714-1.487 4.803-1.487 2.09 0 3.683.496 4.781 1.487 1.113.991 1.67 2.44 1.67 4.346v4.895c0 1.906-.557 3.355-1.67 4.346-1.098.991-2.691 1.487-4.78 1.487zm0-2.127c1.205 0 2.128-.313 2.768-.938.656-.64.984-1.563.984-2.768v-4.895c0-1.205-.328-2.12-.984-2.745-.64-.64-1.563-.96-2.768-.96-1.22 0-2.157.32-2.813.96-.64.625-.96 1.54-.96 2.745v4.895c0 1.205.32 2.127.96 2.768.656.625 1.594.938 2.813.938zM75.124 9.23v12.696c0 1.098-.23 1.929-.687 2.493-.442.549-1.15.823-2.127.823h-1.898l-5.65-11.78v11.78h-2.54V9.23h3.089l6.519 13.702h.114c.244 0 .412-.099.503-.297.092-.214.138-.58.138-1.098V9.23h2.539zM54.846 21.034h-6.565l-1.258 4.208h-2.699l4.003-12.97c.26-.853.526-1.517.8-1.99.29-.472.626-.807 1.007-1.006.382-.213.862-.32 1.441-.32.564 0 1.037.107 1.418.32.382.199.717.534 1.007 1.007.29.473.564 1.136.823 1.99l3.98 12.97h-2.699l-1.258-4.21zm-.594-2.013-1.99-6.702c-.092-.305-.191-.527-.298-.664a.44.44 0 0 0-.389-.206.499.499 0 0 0-.411.206c-.107.137-.206.359-.298.664l-1.99 6.702h5.376zm-17.195-7.663h-4.963V9.23h12.603v2.128h-4.94v13.884h-2.7V11.358z"/></g><defs><clipPath id="a"><path fill="#fff" d="M.04 0h95.871v33.857H.04z"/></clipPath><clipPath id="b"><path fill="#fff" d="M2.887 6.153h21.006v21.532H2.887z"/></clipPath></defs></svg>