<svg xmlns="http://www.w3.org/2000/svg" width="107" height="34" fill="none"><path fill="#fff" d="M30.226 21.058h1.548l-2.025-2.104a15.4 15.4 0 0 0-11.115-4.725h-2.025c-4.168 0-8.178 1.708-11.116 4.725L3.47 21.058h1.548c4.168 0 8.178-1.707 11.116-4.724l1.508-1.549c-.873 5.32-8.456 13.736-8.456 13.736h16.991s-7.503-8.297-8.455-13.617l1.389 1.47a15.521 15.521 0 0 0 11.116 4.684z"/><path fill="#fff" d="m16.37 11.133 1.231-1.27 1.23 1.27c2.383 2.5 5.717 3.89 9.171 3.89h1.27l-1.667-1.747c-2.382-2.5-5.716-3.89-9.17-3.89h-1.668c-3.453 0-6.748 1.39-9.17 3.89L5.93 15.063H7.2c3.454 0 6.788-1.43 9.17-3.93z"/><path fill="#fff" d="m16.609 6.766.992-1.032.993 1.032a10.359 10.359 0 0 0 7.463 3.176h1.032l-1.35-1.43a10.359 10.359 0 0 0-7.463-3.175h-1.35a10.36 10.36 0 0 0-7.463 3.176l-1.35 1.429h1.032a10.36 10.36 0 0 0 7.464-3.176zm86.996 6.477v13.112H100.4V13.243h3.205zm-.881-5.688c.641 0 .961.32.961.962v1.495c0 .64-.32.961-.961.961h-1.442c-.641 0-.962-.32-.962-.961V8.517c0-.641.321-.962.962-.962h1.442zm-7.734-.4a45.971 45.971 0 0 1 2.697.107 8.22 8.22 0 0 1 1.31.133l-.268 2.163h-2.59c-.748 0-1.273.152-1.576.454-.302.303-.454.81-.454 1.522v14.822h-3.231V11.134c0-.837.133-1.55.4-2.137.268-.587.704-1.041 1.31-1.362.604-.32 1.406-.48 2.403-.48zm3.018 6.088v2.244h-9.453v-2.11l2.43-.134h7.023zM84.483 7.155a46 46 0 0 1 2.697.107c.516.017.952.062 1.308.133l-.267 2.163h-2.59c-.748 0-1.273.152-1.576.454-.302.303-.454.81-.454 1.522v14.822h-3.23V11.134c0-.837.133-1.55.4-2.137s.703-1.041 1.308-1.362c.606-.32 1.407-.48 2.404-.48zm3.017 6.088v2.244h-9.453v-2.11l2.43-.134H87.5zm-20.644.001v8.866c-.017.658.107 1.13.374 1.415.285.285.739.427 1.362.427a4.72 4.72 0 0 0 1.87-.4c.623-.267 1.38-.668 2.27-1.202l.32 1.923c-.997.8-1.959 1.406-2.884 1.816a7.056 7.056 0 0 1-2.884.614c-2.44 0-3.659-1.202-3.659-3.605v-9.854h3.231zm8.786 0v13.112H73.08l-.348-2.537-.32-.374V13.244h3.231zm-20.538 0 .427 2.563.294.374v10.175h-3.231V13.244h2.51zm6.41-.32-.321 2.99h-.935c-.694 0-1.398.116-2.11.347-.712.232-1.602.58-2.67 1.042l-.214-1.896c.926-.784 1.87-1.389 2.831-1.816.961-.445 1.887-.668 2.777-.668h.641zM46.752 7.93v18.426h-3.338V7.929h3.338zm5.715 0v2.723H37.699V7.93h14.768z"/></svg>