<svg xmlns="http://www.w3.org/2000/svg" width="112" height="34" fill="none"><g fill="#fff" clip-path="url(#a)"><path d="M19.12 15.601a2.98 2.98 0 0 0-.852 2.387l-.015-.015a3.538 3.538 0 0 1-3.825 3.824l.015.015a2.998 2.998 0 0 0-2.396 5.103 2.997 2.997 0 0 0 5.102-2.4l.015.015a3.54 3.54 0 0 1 3.825-3.825l-.015-.014a2.992 2.992 0 1 0-1.851-5.09h-.003z"/><path d="m13.107 19.889-.016-.015a2.961 2.961 0 0 0 3.24-3.238l.016.015a3.539 3.539 0 0 1 3.825-3.824l-.015-.015a2.997 2.997 0 1 0-2.704-2.703l-.014-.016a3.536 3.536 0 0 1-3.825 3.825l.014.015a2.96 2.96 0 0 0-3.24 3.238l-.015-.015a3.54 3.54 0 0 1-3.825 3.824l.014.015a2.997 2.997 0 1 0 2.704 2.703l.016.015a3.538 3.538 0 0 1 3.825-3.824z"/><path d="M7.648 18.254a2.975 2.975 0 0 0 .852-2.386l.015.014a3.539 3.539 0 0 1 3.827-3.824l-.016-.015A2.997 2.997 0 1 0 9.623 9.34l-.015-.015a3.538 3.538 0 0 1-3.825 3.825l.015.014a2.992 2.992 0 0 0-3.079 4.002 2.99 2.99 0 0 0 4.93 1.088zm99.332-7.178c-.322 0-.59-.024-.802-.071a1.14 1.14 0 0 1-.508-.248 1 1 0 0 1-.271-.484 3.63 3.63 0 0 1-.071-.79c0-.323.024-.586.071-.79.055-.213.145-.382.271-.508.134-.126.303-.213.508-.26.212-.047.48-.07.802-.07.323 0 .586.023.791.07.212.047.381.134.507.26s.212.295.26.507c.047.205.07.468.07.79 0 .323-.023.587-.07.791a.935.935 0 0 1-.26.484 1.07 1.07 0 0 1-.507.248c-.205.047-.468.07-.791.07zm-1.404 2.112h2.808v12.449h-2.808v-12.45zm-14.916 0h2.797v8.484c0 .33.02.61.059.838.047.228.141.417.283.566.141.142.346.248.613.319.268.063.626.094 1.074.094.472 0 .9-.024 1.286-.07.386-.056.716-.115.991-.178a8.08 8.08 0 0 0 .874-.26v-9.793h2.796v12.449H99.38l-.33-.92c-.44.243-.917.46-1.428.648-.44.158-.952.303-1.534.437a8.03 8.03 0 0 1-1.829.2c-1.22 0-2.124-.322-2.714-.967-.59-.653-.885-1.668-.885-3.044v-8.803zM77.848 23.241c.346.079.731.15 1.156.213a20.365 20.365 0 0 0 2.903.201c.645 0 1.156-.024 1.534-.072.377-.047.66-.125.85-.236a.791.791 0 0 0 .377-.472 2.81 2.81 0 0 0 .082-.743 2.29 2.29 0 0 0-.035-.425.704.704 0 0 0-.142-.354.77.77 0 0 0-.33-.271 1.795 1.795 0 0 0-.578-.177l-2.608-.484c-.598-.102-1.101-.24-1.51-.413a2.715 2.715 0 0 1-.991-.684 2.702 2.702 0 0 1-.531-1.062c-.103-.425-.154-.94-.154-1.546 0-1.306.433-2.277 1.298-2.914.873-.646 2.116-.968 3.729-.968.566 0 1.085.035 1.557.106.48.063.897.138 1.251.224.41.095.783.201 1.121.319v2.006c-.377-.063-.77-.118-1.18-.165-.354-.04-.751-.079-1.192-.118-.432-.04-.873-.06-1.321-.06-.511 0-.936.024-1.275.071-.338.04-.605.11-.802.213a.89.89 0 0 0-.413.401 1.343 1.343 0 0 0-.118.602c0 .189.016.358.047.507a.88.88 0 0 0 .201.401c.102.118.244.22.425.307.18.087.425.157.731.213l2.702.507a5.98 5.98 0 0 1 1.334.401c.37.165.668.39.897.673.228.283.393.645.495 1.085.102.433.153.968.153 1.605 0 .606-.062 1.149-.188 1.628-.118.48-.362.885-.732 1.216-.37.33-.893.582-1.57.755-.676.18-1.569.271-2.678.271-.613 0-1.192-.043-1.734-.13a14.539 14.539 0 0 1-1.428-.27c-.48-.119-.924-.253-1.333-.402v-1.959zm-12.227 0c.346.079.732.15 1.157.213a20.32 20.32 0 0 0 2.902.201c.645 0 1.156-.024 1.534-.072.378-.047.66-.125.85-.236a.792.792 0 0 0 .377-.472c.055-.196.083-.444.083-.743 0-.157-.012-.299-.035-.425a.706.706 0 0 0-.142-.354.771.771 0 0 0-.33-.271 1.795 1.795 0 0 0-.579-.177l-2.607-.484c-.598-.102-1.102-.24-1.51-.413a2.715 2.715 0 0 1-.992-.684 2.701 2.701 0 0 1-.53-1.062c-.103-.425-.154-.94-.154-1.546 0-1.306.432-2.277 1.298-2.914.873-.646 2.116-.968 3.728-.968.567 0 1.086.035 1.558.106.48.063.897.138 1.25.224.41.095.783.201 1.122.319v2.006a23.494 23.494 0 0 0-1.18-.165c-.354-.04-.752-.079-1.192-.118-.433-.04-.873-.06-1.322-.06-.511 0-.936.024-1.274.071-.338.04-.606.11-.802.213a.89.89 0 0 0-.413.401 1.343 1.343 0 0 0-.118.602c0 .189.015.358.047.507a.88.88 0 0 0 .2.401c.103.118.244.22.425.307s.425.157.732.213l2.702.507c.527.102.971.236 1.333.401.37.165.669.39.897.673.228.283.393.645.496 1.085.102.433.153.968.153 1.605 0 .606-.063 1.149-.189 1.628-.118.48-.362.885-.731 1.216-.37.33-.893.582-1.57.755-.676.18-1.57.271-2.678.271a10.97 10.97 0 0 1-1.735-.13 14.53 14.53 0 0 1-1.428-.27c-.48-.119-.924-.253-1.333-.402v-1.959zm-13.957-1.133c0-.707.102-1.305.307-1.793.212-.488.495-.881.85-1.18a3.38 3.38 0 0 1 1.262-.649c.488-.134 1.01-.2 1.57-.2.566 0 1.077.03 1.533.094.464.063.866.134 1.204.212.385.087.735.185 1.05.295v-1.156c0-.291-.012-.535-.035-.732a2.38 2.38 0 0 0-.095-.53 1.08 1.08 0 0 0-.2-.378 1.742 1.742 0 0 0-.295-.295c-.252-.181-.598-.311-1.039-.39-.44-.078-1.015-.118-1.723-.118-.448 0-.884.016-1.31.047-.416.024-.79.056-1.12.095-.386.04-.751.082-1.098.13V13.6c.315-.126.705-.24 1.169-.342a15.74 15.74 0 0 1 1.474-.236c.59-.079 1.29-.118 2.1-.118a13 13 0 0 1 1.44.07c.425.04.799.11 1.121.213.323.102.606.236.85.401.252.165.476.37.672.614.166.204.303.42.413.649.11.228.201.495.272.802.07.307.118.66.142 1.062.031.393.047.854.047 1.38v7.54h-2.372l-.212-.92c-.346.244-.728.46-1.145.65a9.556 9.556 0 0 1-1.274.436c-.48.134-1.011.2-1.593.2-.708 0-1.314-.07-1.817-.212-.504-.142-.917-.366-1.24-.673-.314-.306-.546-.708-.696-1.203-.141-.496-.212-1.098-.212-1.806zm2.867 0c0 .347.044.622.13.826.087.205.213.362.378.472.165.103.365.17.602.201.243.032.519.047.826.047.4 0 .778-.035 1.132-.106.362-.079.68-.161.956-.248.315-.102.61-.22.885-.354v-2.16c-.252-.046-.523-.09-.814-.129-.252-.04-.539-.07-.861-.094a10.117 10.117 0 0 0-1.004-.047c-.393 0-.731.02-1.014.059a1.564 1.564 0 0 0-.685.224.98.98 0 0 0-.4.483c-.087.205-.13.48-.13.826zM31.852 8.798h4.908l3.115 10.148h.095l3.22-10.148h4.826v16.838h-2.82V11.43h-.07l-.32 1.062a47.52 47.52 0 0 1-.554 1.781l-2.171 6.797h-4.236l-2.219-6.844c-.078-.236-.169-.511-.271-.826-.102-.322-.197-.63-.283-.92a687.45 687.45 0 0 0-.319-1.05h-.07v14.206h-2.832V8.798z"/></g><defs><clipPath id="a"><path fill="#fff" d="M0 0h111.149v33.857H0z"/></clipPath></defs></svg>