<svg xmlns="http://www.w3.org/2000/svg" width="30" height="30" fill="none"><path fill="#fff" fill-rule="evenodd" d="M10.418.67a6.225 6.225 0 0 0-4.402 1.823L.383 8.126v2.579a6.21 6.21 0 0 0 2.03 4.6 6.209 6.209 0 0 0-2.03 4.598v2.579l5.633 5.633a6.224 6.224 0 0 0 9-.207 6.225 6.225 0 0 0 9 .206l5.634-5.632v-2.579c0-1.822-.782-3.46-2.03-4.599a6.209 6.209 0 0 0 2.03-4.599V8.126l-5.633-5.633a6.225 6.225 0 0 0-9 .207 6.208 6.208 0 0 0-4.6-2.03zm8.812 14.634a6.392 6.392 0 0 1-.207-.197L15.016 11.1l-4.007 4.007a6.29 6.29 0 0 1-.206.197c.07.064.139.13.206.197l4.007 4.008 4.007-4.008c.068-.067.137-.133.207-.197zm-2.588 7.178v1.231a2.973 2.973 0 0 0 5.076 2.102l4.68-4.68v-1.232a2.973 2.973 0 0 0-5.075-2.102l-4.68 4.68zm-3.252 0L8.71 17.8a2.973 2.973 0 0 0-5.075 2.102v1.232l4.68 4.68a2.973 2.973 0 0 0 5.075-2.102v-1.231zm0-15.587v1.231l-4.68 4.681a2.973 2.973 0 0 1-5.075-2.102V9.474l4.68-4.681a2.973 2.973 0 0 1 5.075 2.102zm7.933 5.912-4.68-4.68V6.894a2.973 2.973 0 0 1 5.075-2.102l4.68 4.68v1.232a2.973 2.973 0 0 1-5.075 2.102z" clip-rule="evenodd"/></svg>